<?xml version="1.0" encoding="UTF-8"?>
<svg xmlns="http://www.w3.org/2000/svg" viewBox="0 0 800 600" width="800" height="600">
<defs>
<marker id="arrowhead" markerWidth="10" markerHeight="7" refX="9" refY="3.5" orient="auto">
<polygon points="0 0, 10 3.5, 0 7" fill="#333333"/>
</marker>
</defs>
<rect width="800" height="600" fill="#ffffff"/>
<text x="400" y="30" font-family="Calibri,Arial,sans-serif" font-size="16" text-anchor="middle" font-weight="bold">Modelo entidad-relación</text>
<rect x="80" y="80" width="120" height="50" fill="#ffffff" stroke="#333333" stroke-width="1.5"/>
<text x="140.0" y="110.0" font-family="Calibri,Arial,sans-serif" font-size="12" text-anchor="middle" fill="#000000">usuarios</text><line x1="200" y1="105" x2="280" y2="105" stroke="#333333" stroke-width="1.2" marker-end="url(#arrowhead)"/><rect x="280" y="80" width="120" height="50" fill="#ffffff" stroke="#333333" stroke-width="1.5"/>
<text x="340.0" y="110.0" font-family="Calibri,Arial,sans-serif" font-size="12" text-anchor="middle" fill="#000000">anuncios</text><line x1="400" y1="105" x2="480" y2="105" stroke="#333333" stroke-width="1.2" marker-end="url(#arrowhead)"/><rect x="480" y="80" width="120" height="50" fill="#ffffff" stroke="#333333" stroke-width="1.5"/>
<text x="540.0" y="110.0" font-family="Calibri,Arial,sans-serif" font-size="12" text-anchor="middle" fill="#000000">favoritos</text><rect x="80" y="180" width="120" height="50" fill="#ffffff" stroke="#333333" stroke-width="1.5"/>
<text x="140.0" y="210.0" font-family="Calibri,Arial,sans-serif" font-size="12" text-anchor="middle" fill="#000000">comunidad_publicaciones</text><line x1="200" y1="205" x2="280" y2="205" stroke="#333333" stroke-width="1.2" marker-end="url(#arrowhead)"/><rect x="280" y="180" width="120" height="50" fill="#ffffff" stroke="#333333" stroke-width="1.5"/>
<text x="340.0" y="210.0" font-family="Calibri,Arial,sans-serif" font-size="12" text-anchor="middle" fill="#000000">comunidad_comentarios</text><rect x="80" y="280" width="120" height="50" fill="#ffffff" stroke="#333333" stroke-width="1.5"/>
<text x="140.0" y="310.0" font-family="Calibri,Arial,sans-serif" font-size="12" text-anchor="middle" fill="#000000">sugerencias</text><rect x="480" y="280" width="120" height="50" fill="#ffffff" stroke="#333333" stroke-width="1.5"/>
<text x="540.0" y="310.0" font-family="Calibri,Arial,sans-serif" font-size="12" text-anchor="middle" fill="#000000">propuestas</text><rect x="280" y="280" width="120" height="50" fill="#ffffff" stroke="#333333" stroke-width="1.5"/>
<text x="340.0" y="310.0" font-family="Calibri,Arial,sans-serif" font-size="12" text-anchor="middle" fill="#000000">eventos</text></svg>